<?xml version="1.0" encoding="UTF-8"?>
<svg id="Layer_1" xmlns="http://www.w3.org/2000/svg" version="1.1" viewBox="0 0 500 500">
  <!-- Generator: Adobe Illustrator 29.6.1, SVG Export Plug-In . SVG Version: 2.1.1 Build 9)  -->
  <defs>
    <style>
      .st0 {
        fill: #fff;
      }

      .st1 {
        fill: #d26249;
      }
    </style>
  </defs>
  <circle class="st0" cx="250" cy="250" r="250"/>
  <g id="Logo">
    <g>
      <path class="st1" d="M102.35,374.53c1-1.85,7.77-15.27,20.33-40.23,8.13-16.27,16.01-29,23.65-38.2,7.63-9.2,19.72-18.94,36.28-29.21,15.89-9.85,27.31-17.84,34.26-23.98.92-.86,1.91-1.79,2.96-2.76,0,0,0,0,.01-.01h0c6.41-5.97,15.18-14.1,26.32-24.4,1.42,0,8.49,5.35,21.19,16.05,12.7,10.7,23.54,16.05,32.53,16.05s16.77-1.64,23.76-6.49c20.74-14.41,37.16-29.08,49.22-44.02-3.85,0-9.63.61-17.33,1.82-7.7,1.21-13.56,1.82-17.55,1.82-5.71,0-12.34-1.93-19.9-5.78-8.42-4.28-12.63-8.99-12.63-14.13,0-4.28,3.07-14.98,9.2-32.1,7.56-20.97,24.9-35.45,52.01-43.45,15.55-4.56,25.25-6.85,29.11-6.85,5.85,0,10.63,2.93,14.34,8.77,3.28,5.14,4.92,10.77,4.92,16.91l-4.92,29.53c6.56-1.14,11.91-3.07,16.05-5.78,1.42-.86,14.32-11.71,31.16-26.41,1.67-1.43,3.27-2.78,4.8-4.04C417.94,47,339.46,0,250,0,111.93,0,0,111.93,0,250c0,65.77,25.41,125.59,66.92,170.22,13.44-12.77,25.25-27.99,35.43-45.69ZM323.07,66.01c0-5.71,3.13-12.38,9.39-20.02,6.26-7.63,12.14-11.45,17.63-11.45s8.24,2.36,8.24,7.08c0,8.13-3.74,17.03-11.2,26.69l5.11,4.94-5.77,16.31c-3.52-2.41-7.14-5.27-10.87-8.57-17.03,15.82-29.99,23.73-38.88,23.73-1.76,0-4.78-.66-9.06-1.98,13.4-6.48,27.4-15.05,42.01-25.7-4.39-4.17-6.59-7.85-6.59-11.04ZM190,205.28l51.32-25.66c-2.29,7.41-5.45,12.1-9.48,14.06l-57.21,28.11c1.74-6.76,6.86-12.26,15.36-16.51Z"/>
      <path class="st1" d="M377.14,136.76c-7.85,0-16.55,1.64-26.11,4.92-5.68,1.95-11.34,4.36-16.02,8.22-1.05.86-2.04,1.8-2.95,2.81-.43.48-.84.98-1.22,1.49-.26.35-1.02,1.12-1.06,1.55-.04.54,1.46,1.3,1.91,1.61.77.53,1.56,1.05,2.38,1.52,1.61.93,3.33,1.68,5.16,2.03,3.6.67,7.27.86,10.92.97.72.02,1.44.04,2.16.05,2.2.04,4.39.06,6.59.04,8.44-.06,16.92-.55,25.29-1.66,2.75-.37,5.49-.82,8.21-1.41,1.18-.26,2.35-.54,3.51-.86.29-.08,3.06-.75,3.06-.95,0-13.55-7.28-20.33-21.83-20.33Z"/>
      <path class="st1" d="M342.02,64.36c1.98-3.4,2.97-6.1,2.97-8.07,0-5.05-2.14-7.58-6.43-7.58l-2.47.99c-1.21,1.43-1.81,3.08-1.81,4.94,0,2.2,2.58,5.44,7.74,9.72Z"/>
      <path class="st1" d="M473.19,137.27c-12.54,7.46-38.3,29-70.36,58.98-4.14,23.83-10.99,59.43-20.55,106.79l-1.71-.21-.43-.86c3.71-13.7,8.91-46.8,15.62-99.3-13.98,14.27-28.04,28.46-42.16,42.59-13.23,13.23-26.72,25.03-40.45,35.38-5.28,3.28-11.12,5.71-17.12,5.71-10.13,0-18.12-4.49-23.97-13.48-11.98,14.84-19.48,22.26-22.47,22.26-3.28,0-8.13-3.78-14.55-11.34-5.99-6.99-9.56-12.48-10.7-16.48-2.92,3.94-8.11,8.55-15.55,13.84l-.08.28c-.65.38-1.28.74-1.92,1.11-.29.2-.57.4-.87.6l.03-.11c-16.22,9.45-27.65,16.41-34.27,20.87-16.69,11.13-26.9,20.33-30.6,27.61-11.42,24.68-22.83,49.29-34.24,73.83-6.98,13.24-14.09,24.19-21.33,32.91,43.96,38.44,101.5,61.74,164.48,61.74,138.07,0,250-111.93,250-250,0-40.56-9.67-78.86-26.81-112.73Z"/>
    </g>
  </g>
</svg>